<svg width="133" height="133" viewBox="0 0 133 133" fill="none" xmlns="http://www.w3.org/2000/svg">
<rect x="56" width="25" height="5" fill="#FF4D4D"/>
<rect x="51" y="5" width="25" height="2" fill="#FF4D4D"/>
<rect x="49" y="7" width="24" height="5" fill="#FF4D4D"/>
<rect x="49" y="12" width="20" height="5" fill="#FF4D4D"/>
<rect x="49" y="17" width="15" height="5" fill="#FF4D4D"/>
<rect x="76" y="5" width="10" height="2" fill="#4F4F4F"/>
<rect x="73" y="7" width="20" height="5" fill="#4F4F4F"/>
<rect x="69" y="12" width="19" height="5" fill="#4F4F4F"/>
<rect x="64" y="17" width="9" height="5" fill="#4F4F4F"/>
<rect x="73" y="17" width="10" height="5" fill="#FFAF7C"/>
<rect x="59" y="22" width="27" height="12" fill="#FFDDB6"/>
<rect x="69" y="34" width="14" height="5" fill="#FFDDB6"/>
<rect x="56" y="39" width="13" height="5" fill="white"/>
<rect x="54" y="44" width="15" height="5" fill="white"/>
<rect x="49" y="47" width="15" height="7" fill="white"/>
<rect x="49" y="54" width="12" height="17" fill="#FFDDB6"/>
<rect x="54" y="66" width="10" height="10" fill="#FFDDB6"/>
<rect x="56" y="71" width="10" height="8" fill="#FFDDB6"/>
<rect x="61" y="71" width="12" height="13" fill="#FFDDB6"/>
<rect x="51" y="96" width="15" height="15" fill="#FFDDB6"/>
<rect x="51" y="111" width="13" height="10" fill="#FFDDB6"/>
<rect x="49" y="79" width="12" height="17" fill="#5C9CE5"/>
<rect x="61" y="84" width="8" height="12" fill="#5C9CE5"/>
<rect x="69" y="44" width="4" height="27" fill="white"/>
<rect x="64" y="49" width="5" height="22" fill="white"/>
<rect x="61" y="54" width="3" height="12" fill="white"/>
<rect x="51" y="37" width="5" height="7" fill="white"/>
<rect x="49" y="42" width="5" height="5" fill="white"/>
<rect x="49" y="71" width="5" height="8" fill="white"/>
<rect x="44" y="67" width="5" height="12" fill="white"/>
<rect x="54" y="76" width="2" height="3" fill="white"/>
<rect x="83" y="17" width="3" height="5" fill="#4F4F4F"/>
<rect x="78" y="22" width="3" height="5" fill="#4F4F4F"/>
<rect x="69" y="22" width="4" height="3" fill="#4F4F4F"/>
<rect x="49" y="20" width="15" height="5" fill="white"/>
<rect x="44" y="25" width="15" height="5" fill="white"/>
<rect x="39" y="30" width="15" height="4" fill="white"/>
<rect x="56" y="34" width="13" height="5" fill="#FFAF7C"/>
<rect x="51" y="121" width="13" height="2" fill="#29CC9F"/>
<rect x="51" y="123" width="18" height="5" fill="#29CC9F"/>
<rect x="51" y="128" width="22" height="5" fill="#29CC9F"/>
<rect x="69" y="39" width="4" height="5" fill="#FFAF7C"/>
</svg>
