<svg width="516" height="125" viewBox="0 0 516 125" fill="none" xmlns="http://www.w3.org/2000/svg">
<rect y="23" width="516" height="102" rx="14" fill="#00892E"/>
<rect width="516" height="102" rx="14" fill="#99BE0F"/>
<path d="M156.667 45.6667H148.667V67H138V45.6667H130V40.3333H156.667V45.6667ZM188.667 67H178V56.3333H172.667V67H162V40.3333H186V43H188.667V51H186V56.3333H188.667V67ZM178 51V45.6667H172.667V51H178ZM220.667 53.6667H218V56.3333H212.667V67H202V56.3333H196.667V53.6667H194V40.3333H204.667V51H210V40.3333H220.667V53.6667ZM268.667 67H258V56.3333H252.667V67H242V43H244.667V40.3333H266V43H268.667V67ZM258 51V45.6667H252.667V51H258ZM300.667 67H276.667V64.3333H274V43H276.667V40.3333H300.667V45.6667H284.667V61.6667H290V56.3333H287.333V51H300.667V67ZM332.667 67H322V56.3333H316.667V67H306V43H308.667V40.3333H330V43H332.667V67ZM322 51V45.6667H316.667V51H322ZM348.667 67H338V40.3333H348.667V67ZM380.667 67H370V45.6667H364.667V67H354V40.3333H378V43H380.667V67Z" fill="white"/>
</svg>
