<svg width="204" height="204" viewBox="0 0 204 204" fill="none" xmlns="http://www.w3.org/2000/svg">
<path fill-rule="evenodd" clip-rule="evenodd" d="M203.288 114.117L173.496 110.591C173.828 107.785 174 104.919 174 102C174 99.0811 173.828 96.215 173.496 93.4093L203.288 89.8831C203.758 93.8565 204 97.9 204 102C204 106.1 203.758 110.143 203.288 114.117ZM195.789 61.8375L168.216 73.66C165.954 68.384 163.073 63.4222 159.658 58.8678L183.661 40.8713C188.49 47.3125 192.575 54.3437 195.789 61.8375ZM163.129 20.339L145.132 44.3417C140.578 40.9269 135.616 38.0458 130.34 35.7836L142.162 8.21134C149.656 11.4246 156.688 15.5096 163.129 20.339ZM114.117 0.712212C110.143 0.241902 106.1 0 102 0C97.9 0 93.8565 0.241902 89.8831 0.712211L93.4093 30.5042C96.215 30.1722 99.0811 30 102 30C104.919 30 107.785 30.1722 110.591 30.5043L114.117 0.712212ZM61.8375 8.21135L73.66 35.7836C68.384 38.0458 63.4222 40.9269 58.8678 44.3417L40.8713 20.339C47.3125 15.5097 54.3437 11.4246 61.8375 8.21135ZM20.339 40.8713L44.3417 58.8678C40.9269 63.4222 38.0458 68.384 35.7836 73.6601L8.21134 61.8375C11.4246 54.3437 15.5096 47.3125 20.339 40.8713ZM0.712212 89.883C0.241902 93.8565 0 97.9 0 102C0 106.1 0.241902 110.143 0.712211 114.117L30.5042 110.591C30.1722 107.785 30 104.919 30 102C30 99.0811 30.1722 96.215 30.5043 93.4093L0.712212 89.883ZM8.21135 142.162L35.7836 130.34C38.0458 135.616 40.9269 140.578 44.3417 145.132L20.339 163.129C15.5096 156.688 11.4246 149.656 8.21135 142.162ZM40.8713 183.661L58.8678 159.658C63.4222 163.073 68.384 165.954 73.6601 168.216L61.8375 195.789C54.3437 192.575 47.3125 188.49 40.8713 183.661ZM89.883 203.288L93.4093 173.496C96.215 173.828 99.0811 174 102 174C104.919 174 107.785 173.828 110.591 173.496L114.117 203.288C110.143 203.758 106.1 204 102 204C97.9 204 93.8565 203.758 89.883 203.288ZM142.162 195.789L130.34 168.216C135.616 165.954 140.578 163.073 145.132 159.658L163.129 183.661C156.688 188.49 149.656 192.575 142.162 195.789ZM183.661 163.129C188.49 156.688 192.575 149.656 195.789 142.162L168.216 130.34C165.954 135.616 163.073 140.578 159.658 145.132L183.661 163.129Z" fill="#F587CE"/>
</svg>
