<svg width="133" height="133" viewBox="0 0 133 133" fill="none" xmlns="http://www.w3.org/2000/svg">
<rect x="64" y="1" width="24" height="5" fill="#FF4D4D"/>
<rect x="59" y="6" width="24" height="2" fill="#FF4D4D"/>
<rect x="56" y="8" width="25" height="5" fill="#FF4D4D"/>
<rect x="56" y="13" width="20" height="5" fill="#FF4D4D"/>
<rect x="56" y="18" width="15" height="6" fill="#FF4D4D"/>
<rect x="83" y="6" width="11" height="2" fill="#4F4F4F"/>
<rect x="81" y="8" width="20" height="5" fill="#4F4F4F"/>
<rect x="76" y="13" width="20" height="5" fill="#4F4F4F"/>
<rect x="71" y="18" width="10" height="6" fill="#4F4F4F"/>
<rect x="81" y="18" width="10" height="6" fill="#FFAF7C"/>
<rect x="66" y="24" width="28" height="12" fill="#FFDDB6"/>
<rect x="76" y="36" width="15" height="5" fill="#FFDDB6"/>
<rect x="64" y="41" width="12" height="5" fill="white"/>
<rect x="64" y="46" width="17" height="7" fill="white"/>
<rect x="81" y="53" width="10" height="7" fill="#FFDDB6"/>
<rect x="68" y="53" width="13" height="7" fill="white"/>
<rect x="76" y="58" width="23" height="8" fill="#FFDDB6"/>
<rect x="81" y="66" width="18" height="5" fill="#FFDDB6"/>
<rect x="45" y="100" width="19" height="3" fill="#FFDDB6"/>
<rect x="38" y="103" width="26" height="6" fill="#FFDDB6"/>
<rect x="26" y="103" width="12" height="13" fill="#29CC9F"/>
<rect x="26" y="116" width="7" height="5" fill="#29CC9F"/>
<rect x="26" y="121" width="5" height="5" fill="#29CC9F"/>
<rect x="38" y="109" width="26" height="5" fill="#FFDDB6"/>
<rect x="38" y="114" width="18" height="2" fill="#FFDDB6"/>
<rect x="81" y="48" width="4" height="5" fill="white"/>
<rect x="59" y="41" width="5" height="5" fill="white"/>
<rect x="64" y="53" width="4" height="30" fill="white"/>
<rect x="68" y="60" width="8" height="23" fill="white"/>
<rect x="76" y="66" width="5" height="5" fill="white"/>
<rect x="51" y="71" width="5" height="12" fill="white"/>
<rect x="49" y="83" width="19" height="8" fill="#5C9CE5"/>
<rect x="43" y="91" width="23" height="9" fill="#5C9CE5"/>
<rect x="68" y="83" width="17" height="8" fill="#173C99"/>
<rect x="76" y="78" width="5" height="5" fill="#173C99"/>
<rect x="66" y="91" width="15" height="4" fill="#173C99"/>
<rect x="66" y="95" width="10" height="3" fill="#173C99"/>
<rect x="56" y="46" width="8" height="37" fill="white"/>
<rect x="99" y="53" width="12" height="13" fill="#FFDDB6"/>
<rect x="91" y="18" width="3" height="6" fill="#4F4F4F"/>
<rect x="85" y="24" width="3" height="5" fill="#4F4F4F"/>
<rect x="76" y="24" width="5" height="2" fill="#4F4F4F"/>
<rect x="56" y="20" width="15" height="6" fill="white"/>
<rect x="51" y="26" width="15" height="5" fill="white"/>
<rect x="45" y="31" width="16" height="5" fill="white"/>
<rect x="64" y="36" width="12" height="5" fill="#FFAF7C"/>
<rect x="51" y="41" width="8" height="5" fill="#C9C9C9"/>
<rect x="43" y="46" width="13" height="12" fill="#C9C9C9"/>
<rect x="38" y="48" width="5" height="26" fill="#FFAF7C"/>
<rect x="33" y="53" width="5" height="21" fill="#FFAF7C"/>
<rect x="28" y="58" width="5" height="16" fill="#FFAF7C"/>
<rect x="43" y="58" width="6" height="5" fill="#FFAF7C"/>
<rect x="81" y="91" width="10" height="4" fill="#FFAF7C"/>
<rect x="76" y="95" width="18" height="5" fill="#FFAF7C"/>
<rect x="73" y="100" width="21" height="5" fill="#FFAF7C"/>
<rect x="81" y="105" width="13" height="6" fill="#FFAF7C"/>
<rect x="76" y="111" width="18" height="5" fill="#FFAF7C"/>
<rect x="76" y="116" width="12" height="5" fill="#FFAF7C"/>
<rect x="76" y="121" width="12" height="2" fill="#17995C"/>
<rect x="76" y="123" width="18" height="5" fill="#17995C"/>
<rect x="76" y="128" width="23" height="5" fill="#17995C"/>
<rect x="76" y="41" width="5" height="5" fill="#FFAF7C"/>
<rect x="41" y="53" width="8" height="5" fill="#FFAF7C"/>
</svg>
