<svg width="133" height="133" viewBox="0 0 133 133" fill="none" xmlns="http://www.w3.org/2000/svg">
<rect x="63" width="26" height="5" fill="#FF4D4D"/>
<rect x="58" y="5" width="26" height="2" fill="#FF4D4D"/>
<rect x="56" y="7" width="25" height="5" fill="#FF4D4D"/>
<rect x="56" y="12" width="20" height="5" fill="#FF4D4D"/>
<rect x="56" y="17" width="15" height="5" fill="#FF4D4D"/>
<rect x="84" y="5" width="9" height="2" fill="#4F4F4F"/>
<rect x="81" y="7" width="20" height="5" fill="#4F4F4F"/>
<rect x="76" y="12" width="20" height="5" fill="#4F4F4F"/>
<rect x="71" y="17" width="10" height="5" fill="#4F4F4F"/>
<rect x="81" y="17" width="10" height="5" fill="#FFAF7C"/>
<rect x="67" y="22" width="26" height="12" fill="#FFDDB6"/>
<rect x="76" y="34" width="13" height="3" fill="#FFDDB6"/>
<rect x="91" y="17" width="2" height="5" fill="#4F4F4F"/>
<rect x="86" y="22" width="3" height="5" fill="#4F4F4F"/>
<rect x="76" y="22" width="5" height="2" fill="#4F4F4F"/>
<rect x="56" y="20" width="15" height="4" fill="white"/>
<rect x="51" y="24" width="16" height="5" fill="white"/>
<rect x="46" y="29" width="15" height="5" fill="white"/>
<rect x="63" y="32" width="13" height="5" fill="#FFAF7C"/>
<rect x="51" y="37" width="12" height="5" fill="white"/>
<rect x="81" y="89" width="8" height="5" fill="#FFDDB6"/>
<rect x="76" y="94" width="17" height="7" fill="#FFDDB6"/>
<rect x="81" y="96" width="17" height="8" fill="#FFDDB6"/>
<rect x="84" y="101" width="17" height="8" fill="#FFDDB6"/>
<rect x="89" y="106" width="12" height="10" fill="#FFDDB6"/>
<rect x="93" y="111" width="8" height="10" fill="#FFDDB6"/>
<rect x="93" y="126" width="20" height="7" fill="#29CC9F"/>
<rect x="93" y="121" width="15" height="5" fill="#29CC9F"/>
<rect x="39" y="48" width="24" height="7" fill="#FFDDB6"/>
<rect x="48" y="48" width="15" height="7" fill="white"/>
<rect x="34" y="50" width="12" height="7" fill="#FFDDB6"/>
<rect x="29" y="55" width="12" height="7" fill="#FFDDB6"/>
<rect x="26" y="60" width="13" height="12" fill="#FFDDB6"/>
<rect x="63" y="37" width="13" height="40" fill="white"/>
<rect x="76" y="42" width="5" height="25" fill="white"/>
<rect x="56" y="55" width="7" height="22" fill="white"/>
<rect x="51" y="62" width="5" height="15" fill="white"/>
<rect x="56" y="77" width="25" height="7" fill="#5C9CE5"/>
<rect x="58" y="79" width="28" height="10" fill="#5C9CE5"/>
<rect x="63" y="84" width="18" height="10" fill="#5C9CE5"/>
<rect x="69" y="89" width="7" height="10" fill="#5C9CE5"/>
<rect x="76" y="37" width="5" height="5" fill="#FFAF7C"/>
<rect x="81" y="44" width="5" height="18" fill="#C9C9C9"/>
<rect x="29" y="92" width="10" height="12" fill="#FFAF7C"/>
<rect x="19" y="92" width="10" height="12" fill="#17995C"/>
<rect x="19" y="101" width="5" height="13" fill="#17995C"/>
<rect x="24" y="96" width="5" height="13" fill="#17995C"/>
<rect x="39" y="96" width="12" height="13" fill="#FFAF7C"/>
<rect x="51" y="96" width="5" height="8" fill="#FFAF7C"/>
<rect x="56" y="96" width="5" height="5" fill="#FFAF7C"/>
<rect x="86" y="55" width="5" height="12" fill="#FFAF7C"/>
<rect x="86" y="50" width="5" height="5" fill="#C9C9C9"/>
<rect x="91" y="55" width="5" height="12" fill="#FFAF7C"/>
<rect x="96" y="48" width="5" height="14" fill="#FFAF7C"/>
<rect x="101" y="48" width="10" height="12" fill="#FFAF7C"/>
<rect x="51" y="77" width="5" height="19" fill="#173C99"/>
<rect x="56" y="84" width="2" height="12" fill="#173C99"/>
<rect x="58" y="89" width="5" height="7" fill="#173C99"/>
<rect x="63" y="94" width="6" height="2" fill="#173C99"/>
<rect x="46" y="79" width="5" height="17" fill="#173C99"/>
<rect x="41" y="79" width="5" height="17" fill="#173C99"/>
<rect x="39" y="92" width="2" height="4" fill="#173C99"/>
<rect x="43" y="42" width="24" height="8" fill="white"/>
</svg>
