<svg width="380" height="223" viewBox="0 0 380 223" fill="none" xmlns="http://www.w3.org/2000/svg">
<g filter="url(#filter0_d_87_6641)">
<mask id="mask0_87_6641" style="mask-type:alpha" maskUnits="userSpaceOnUse" x="0" y="0" width="380" height="223">
<rect width="380" height="223" fill="#C4C4C4"/>
</mask>
<g mask="url(#mask0_87_6641)">
<path d="M94 104H40V98H34V50H40V44H94V56H58V92H70V80H64V68H94V104ZM166 104H142V80H130V104H106V50H112V44H160V50H166V104ZM142 68V56H130V68H142ZM274 104H250V56H238V104H214V56H202V104H178V44H268V50H274V104ZM346 104H292V98H286V50H292V44H346V56H310V68H328V80H310V92H346V104ZM112 183H106V189H58V183H52V135H58V129H106V135H112V183ZM88 177V141H76V177H88ZM184 183H178V189H124V129H148V177H160V129H184V183ZM256 189H202V183H196V135H202V129H256V141H220V153H238V165H220V177H256V189ZM328 189H304V165H292V189H268V129H322V135H328V153H322V165H328V189ZM304 153V141H292V153H304Z" fill="#F86705"/>
<path d="M94 94H40V88H34V40H40V34H94V46H58V82H70V70H64V58H94V94ZM166 94H142V70H130V94H106V40H112V34H160V40H166V94ZM142 58V46H130V58H142ZM274 94H250V46H238V94H214V46H202V94H178V34H268V40H274V94ZM346 94H292V88H286V40H292V34H346V46H310V58H328V70H310V82H346V94ZM112 173H106V179H58V173H52V125H58V119H106V125H112V173ZM88 167V131H76V167H88ZM184 173H178V179H124V119H148V167H160V119H184V173ZM256 179H202V173H196V125H202V119H256V131H220V143H238V155H220V167H256V179ZM328 179H304V155H292V179H268V119H322V125H328V143H322V155H328V179ZM304 143V131H292V143H304Z" fill="#FEFB2D"/>
</g>
</g>
<defs>
<filter id="filter0_d_87_6641" x="30" y="34" width="320" height="163" filterUnits="userSpaceOnUse" color-interpolation-filters="sRGB">
<feFlood flood-opacity="0" result="BackgroundImageFix"/>
<feColorMatrix in="SourceAlpha" type="matrix" values="0 0 0 0 0 0 0 0 0 0 0 0 0 0 0 0 0 0 127 0" result="hardAlpha"/>
<feOffset dy="4"/>
<feGaussianBlur stdDeviation="2"/>
<feComposite in2="hardAlpha" operator="out"/>
<feColorMatrix type="matrix" values="0 0 0 0 0 0 0 0 0 0 0 0 0 0 0 0 0 0 0.25 0"/>
<feBlend mode="normal" in2="BackgroundImageFix" result="effect1_dropShadow_87_6641"/>
<feBlend mode="normal" in="SourceGraphic" in2="effect1_dropShadow_87_6641" result="shape"/>
</filter>
</defs>
</svg>
