<svg width="455" height="35" viewBox="0 0 455 35" fill="none" xmlns="http://www.w3.org/2000/svg">
<path d="M35 35H0V-1.66893e-06H14V28H35V35ZM77 35H63V21H56V35H42V3.5H45.5V-1.66893e-06H73.5V3.5H77V35ZM63 14V7H56V14H63ZM119 35H105V7H98V35H84V-1.66893e-06H115.5V3.5H119V35ZM161 35H147V21H140V35H126V-1.66893e-06H140V14H147V-1.66893e-06H161V14H157.5V21H161V35ZM182 35H168V-1.66893e-06H182V35ZM224 35H210V7H203V35H189V-1.66893e-06H220.5V3.5H224V35ZM266 35H234.5V31.5H231V3.5H234.5V-1.66893e-06H266V7H245V28H252V21H248.5V14H266V35ZM329 31.5H325.5V35H294V-1.66893e-06H325.5V3.5H329V14H325.5V21H329V31.5ZM315 14V7H308V14H315ZM315 28V21H308V28H315ZM371 35H339.5V31.5H336V3.5H339.5V-1.66893e-06H371V7H350V14H360.5V21H350V28H371V35ZM413 31.5H409.5V35H378V28H399V21H381.5V17.5H378V3.5H381.5V-1.66893e-06H413V7H392V14H409.5V17.5H413V31.5ZM455 7H444.5V35H430.5V7H420V-1.66893e-06H455V7Z" fill="#FEFB2D"/>
</svg>
